<?xml version="1.0" encoding="UTF-8"?>
<svg id="Layer_1" data-name="Layer 1" xmlns="http://www.w3.org/2000/svg" viewBox="0 0 237.55 244.33">
  <defs>
    <style>
      .cls-1, .cls-2 {
        fill: #2a1a51;
      }

      .cls-2, .cls-3, .cls-4, .cls-5 {
        stroke: #fff;
        stroke-miterlimit: 10;
        stroke-width: 2px;
      }

      .cls-3 {
        fill: #fff;
      }

      .cls-4 {
        fill: #c93535;
      }

      .cls-5 {
        fill: #ff8e06;
      }
    </style>
  </defs>
  <path class="cls-4" d="M140.1,93.89c5.57,2.83,12.33,1.73,16.83-2.6,12.26-11.79,34-35.69,20.22-45.29-18.64-12.99-27.67,26.05-27.67,26.05,0,0,20.33-55.41,0-60.49s-20.33,31.62-15.81,60.42c0,0-1.35-50.26-23.54-37.84-20.35,11.39-3.06,42.94,29.97,59.76Z"/>
  <path class="cls-2" d="M153.33,79.88s11.29,0,15.81,18.07c3.5,13.99,15.46,85.97,20.68,117.74.91,5.54-5.36,9.39-9.89,6.08l-.67-.49c-4.29-3.13-10.28-2.36-13.63,1.77l-9.35,11.51c-2.3,2.83-6.51,3.11-9.16.61l-13.32-12.52c-3.39-3.19-8.53-3.61-12.4-1.01l-14.66,9.84c-2.86,1.92-6.73,1.18-8.67-1.67l-4.61-6.74c-3.23-4.73-9.76-5.77-14.31-2.29l-4.25,3.26c-4.73,3.62-11.37-.76-9.89-6.53,8.9-34.7,29.57-110.47,44.26-126.89,19.2-21.46,44.05-10.73,44.05-10.73Z"/>
  <path class="cls-3" d="M112.11,145.38c0,11.54,7.89,19.39,16,19.39,8.11,0,13.36-7.85,13.36-19.39s-6.57-18.92-14.68-18.92-14.68,7.38-14.68,18.92Z"/>
  <path class="cls-3" d="M93.17,141.59c0,11.54-7.89,19.39-16,19.39-8.11,0-13.36-7.85-13.36-19.39,0-11.54,6.57-18.92,14.68-18.92s14.68,7.38,14.68,18.92Z"/>
  <path class="cls-5" d="M105.49,173l-6.5,10.93c-.72,1.22-2.05,1.95-3.46,1.91l-63.66-4.27c-1.82-.51-1.65-3.14.22-3.42l69.69-11.03c3.18-.29,5.34,3.14,3.71,5.88Z"/>
  <path class="cls-5" d="M92.92,193.58l-4.56,6.55c-.67.97-1.83,1.49-3,1.35l-56.22-14.76c-1.18-.11-1.71-1.66-.75-2.35.32-.23.73-.33,1.2-.2l60.8,4.38c2.54.07,3.99,2.94,2.54,5.03Z"/>
  <path class="cls-4" d="M56.45,149.35c.53,3.51,2.2,6.73,4.04,9.76,1.51,2.48,3.24,4.98,5.79,6.36,3.16,1.72,7.13,1.43,10.42-.03,3.29-1.46,6-3.95,8.47-6.58,1.74-1.85,3.44-3.83,5.72-4.95,5.21-2.56,11.5.23,15.98,3.91,4.49,3.68,8.36,8.39,13.77,10.49,6.71,2.61,14.26.65,21.04-1.78,13.03-4.68,25.45-11.05,36.85-18.9.87-.6,1.77-1.25,2.25-2.19.23-.46.35-.95.4-1.46.76-.08,1.52-.18,2.28-.3.09-.02.19-.03.28-.05.29,1.24.6,2.47,1.08,3.64,1.11,2.72,3.11,5,5.35,6.9.73.62,1.5,1.2,2.34,1.66,2.12,1.15,4.63,1.44,7.04,1.22,2.41-.21,4.75-.89,7.07-1.56-3.09-.32-5.51-2.79-7.22-5.39s-3.02-5.51-5.29-7.63c-.96-.9-2.06-1.63-3.15-2.35-.6-.4-1.21-.8-1.9-1.04-.65-.23-1.39-.31-2.12-.24,0-.02,0-.04,0-.06,1.9-.02,3.79-.17,5.67-.45,1.23-.18,2.46-.42,3.59-.94,1.23-.56,2.3-1.42,3.29-2.34,2.51-2.34,4.59-5.1,6.3-8.07,1-1.73,1.98-3.63,3.76-4.53-6.56-.42-13.34-.05-19.37,2.57-.99.43-1.98.93-2.76,1.69-.67.65-1.16,1.45-1.64,2.24-.66,1.09-1.97,2.76-2.73,4.47-1.2-.35-2.42-.3-3.42.19-.55-1.5-1.3-1.45-3.2-1.46-15.77,0-30.05-9.11-45.88-8.6-11.74.38-23.11,6.2-34.78,4.77-2.65-.32-5.26-1.03-7.62-2.28-1.8-.96-3.42-2.22-5.23-3.15-2.08-1.07-4.36-1.69-6.66-2.12-5.57-1.04-12.19-.6-15.64,3.89-2.44,3.18-2.59,7.48-3.12,11.45-.58,4.41-1.75,8.84-1.08,13.23ZM110.35,146.86c-.02-1.2.73-1.88,1.54-2.8,3.36-3.85,7.66-6.86,12.41-8.73,2.69-1.06,5.52-1.76,8.4-2.04,1.94-.19,3.9-.2,5.86-.15,2.31.06,4.76.27,6.61,1.66,1.4,1.06,2.27,2.69,2.79,4.37,1.26,4.05.63,8.6-1.52,12.25-2.15,3.65-5.77,6.37-9.83,7.58-2.99.89-6.17,1-9.27.65-3.85-.43-7.67-1.58-10.84-3.81-1.98-1.39-3.67-3.22-4.82-5.36-.54-1.01-1.31-2.45-1.33-3.62ZM64.95,133.22c.59-.67,1.28-1.27,2.07-1.67.84-.43,1.79-.63,2.73-.72,3.99-.36,7.94,1.38,11.04,3.91,1.75,1.43,3.27,3.11,4.67,4.88,1.01,1.28,2.92,3.07,2.8,4.82-.21,3.1-4.01,7.3-6.64,8.59-1.47.72-3.12.99-4.74,1.25-3.6.57-7.59,1-10.6-1.04-3.1-2.1-4.15-6.2-4.25-9.94-.09-3.58.56-7.39,2.92-10.09Z"/>
  <path class="cls-1" d="M116.92,143.17l-.78,5.41c.83-.25,1.73-.33,2.64-.2,3.37.49,5.7,3.61,5.21,6.97-.1.71-.33,1.38-.64,1.98l3.9.56c-.13-.67-.16-1.37-.05-2.08.49-3.36,3.61-5.7,6.97-5.21.91.13,1.76.46,2.49.94l.78-5.41c-.83.25-1.73.33-2.65.2-3.37-.49-5.7-3.61-5.21-6.97.1-.71.32-1.37.64-1.98l-3.9-.56c.14.67.16,1.37.05,2.08-.49,3.37-3.61,5.7-6.97,5.21-.91-.13-1.75-.46-2.48-.94Z"/>
  <path class="cls-1" d="M66.05,143.52l1.12,4.5c.57-.46,1.25-.81,2.01-1,2.8-.7,5.63,1.01,6.33,3.81.15.59.18,1.19.13,1.76l3.24-.81c-.32-.48-.56-1.03-.71-1.62-.69-2.8,1.01-5.63,3.81-6.33.76-.19,1.53-.2,2.25-.06l-1.12-4.5c-.57.46-1.26.81-2.02,1-2.8.7-5.63-1.01-6.33-3.81-.15-.59-.19-1.18-.13-1.76l-3.24.81c.32.48.56,1.02.71,1.61.7,2.8-1.01,5.63-3.81,6.33-.76.19-1.53.2-2.25.06Z"/>
</svg>